<svg width="126" height="32" viewBox="0 0 126 32" fill="none" xmlns="http://www.w3.org/2000/svg">
<path d="M7.968 24.336C5.888 24.336 4.24 23.76 3.024 22.608C1.808 21.44 1.2 19.776 1.2 17.616V13.584C1.2 11.424 1.808 9.768 3.024 8.616C4.24 7.448 5.888 6.864 7.968 6.864C10.032 6.864 11.624 7.432 12.744 8.568C13.88 9.688 14.448 11.232 14.448 13.2V13.344H11.328V13.104C11.328 12.112 11.048 11.296 10.488 10.656C9.944 10.016 9.104 9.696 7.968 9.696C6.848 9.696 5.968 10.04 5.328 10.728C4.688 11.416 4.368 12.352 4.368 13.536V17.664C4.368 18.832 4.688 19.768 5.328 20.472C5.968 21.16 6.848 21.504 7.968 21.504C9.104 21.504 9.944 21.184 10.488 20.544C11.048 19.888 11.328 19.072 11.328 18.096V17.664H14.448V18C14.448 19.968 13.88 21.52 12.744 22.656C11.624 23.776 10.032 24.336 7.968 24.336ZM17.2213 28.8V26.16H23.7013C24.1493 26.16 24.3733 25.92 24.3733 25.44V22.44H23.9413C23.8133 22.712 23.6133 22.984 23.3413 23.256C23.0693 23.528 22.7013 23.752 22.2373 23.928C21.7733 24.104 21.1813 24.192 20.4613 24.192C19.5333 24.192 18.7173 23.984 18.0133 23.568C17.3253 23.136 16.7893 22.544 16.4053 21.792C16.0213 21.04 15.8293 20.176 15.8293 19.2V12.096H18.8533V18.96C18.8533 19.856 19.0693 20.528 19.5013 20.976C19.9493 21.424 20.5813 21.648 21.3973 21.648C22.3253 21.648 23.0453 21.344 23.5573 20.736C24.0693 20.112 24.3253 19.248 24.3253 18.144V12.096H27.3493V26.112C27.3493 26.928 27.1093 27.576 26.6293 28.056C26.1493 28.552 25.5093 28.8 24.7093 28.8H17.2213ZM36.6664 24.336C35.5944 24.336 34.7704 24.152 34.1944 23.784C33.6184 23.416 33.1944 23.008 32.9224 22.56H32.4904V24H29.5144V7.2H32.5384V13.464H32.9704C33.1464 13.176 33.3784 12.904 33.6664 12.648C33.9704 12.392 34.3624 12.184 34.8424 12.024C35.3384 11.848 35.9464 11.76 36.6664 11.76C37.6264 11.76 38.5144 12 39.3304 12.48C40.1464 12.944 40.8024 13.632 41.2984 14.544C41.7944 15.456 42.0424 16.56 42.0424 17.856V18.24C42.0424 19.536 41.7944 20.64 41.2984 21.552C40.8024 22.464 40.1464 23.16 39.3304 23.64C38.5144 24.104 37.6264 24.336 36.6664 24.336ZM35.7544 21.696C36.6824 21.696 37.4584 21.4 38.0824 20.808C38.7064 20.2 39.0184 19.32 39.0184 18.168V17.928C39.0184 16.776 38.7064 15.904 38.0824 15.312C37.4744 14.704 36.6984 14.4 35.7544 14.4C34.8264 14.4 34.0504 14.704 33.4264 15.312C32.8024 15.904 32.4904 16.776 32.4904 17.928V18.168C32.4904 19.32 32.8024 20.2 33.4264 20.808C34.0504 21.4 34.8264 21.696 35.7544 21.696ZM49.0431 24.336C47.8591 24.336 46.8111 24.088 45.8991 23.592C45.0031 23.08 44.2991 22.368 43.7871 21.456C43.2911 20.528 43.0431 19.44 43.0431 18.192V17.904C43.0431 16.656 43.2911 15.576 43.7871 14.664C44.2831 13.736 44.9791 13.024 45.8751 12.528C46.7711 12.016 47.8111 11.76 48.9951 11.76C50.1631 11.76 51.1791 12.024 52.0431 12.552C52.9071 13.064 53.5791 13.784 54.0591 14.712C54.5391 15.624 54.7791 16.688 54.7791 17.904V18.936H46.1151C46.1471 19.752 46.4511 20.416 47.0271 20.928C47.6031 21.44 48.3071 21.696 49.1391 21.696C49.9871 21.696 50.6111 21.512 51.0111 21.144C51.4111 20.776 51.7151 20.368 51.9231 19.92L54.3951 21.216C54.1711 21.632 53.8431 22.088 53.4111 22.584C52.9951 23.064 52.4351 23.48 51.7311 23.832C51.0271 24.168 50.1311 24.336 49.0431 24.336ZM46.1391 16.68H51.7071C51.6431 15.992 51.3631 15.44 50.8671 15.024C50.3871 14.608 49.7551 14.4 48.9711 14.4C48.1551 14.4 47.5071 14.608 47.0271 15.024C46.5471 15.44 46.2511 15.992 46.1391 16.68ZM56.2706 24V12.096H59.2466V13.44H59.6786C59.8546 12.96 60.1426 12.608 60.5426 12.384C60.9586 12.16 61.4386 12.048 61.9826 12.048H63.4226V14.736H61.9346C61.1666 14.736 60.5346 14.944 60.0386 15.36C59.5426 15.76 59.2946 16.384 59.2946 17.232V24H56.2706ZM64.0103 24V21.216H66.2183V9.984H64.0103V7.2H70.9223C73.1783 7.2 74.8903 7.776 76.0583 8.928C77.2423 10.064 77.8343 11.76 77.8343 14.016V17.184C77.8343 19.44 77.2423 21.144 76.0583 22.296C74.8903 23.432 73.1783 24 70.9223 24H64.0103ZM69.3863 21.12H70.9703C72.2503 21.12 73.1863 20.784 73.7783 20.112C74.3703 19.44 74.6663 18.496 74.6663 17.28V13.92C74.6663 12.688 74.3703 11.744 73.7783 11.088C73.1863 10.416 72.2503 10.08 70.9703 10.08H69.3863V21.12ZM79.3706 24V12.096H82.3466V13.44H82.7786C82.9546 12.96 83.2426 12.608 83.6426 12.384C84.0586 12.16 84.5386 12.048 85.0826 12.048H86.5226V14.736H85.0346C84.2666 14.736 83.6346 14.944 83.1386 15.36C82.6426 15.76 82.3946 16.384 82.3946 17.232V24H79.3706ZM92.9284 24.336C91.7444 24.336 90.6804 24.096 89.7364 23.616C88.7924 23.136 88.0484 22.44 87.5044 21.528C86.9604 20.616 86.6884 19.52 86.6884 18.24V17.856C86.6884 16.576 86.9604 15.48 87.5044 14.568C88.0484 13.656 88.7924 12.96 89.7364 12.48C90.6804 12 91.7444 11.76 92.9284 11.76C94.1124 11.76 95.1764 12 96.1204 12.48C97.0644 12.96 97.8084 13.656 98.3524 14.568C98.8964 15.48 99.1684 16.576 99.1684 17.856V18.24C99.1684 19.52 98.8964 20.616 98.3524 21.528C97.8084 22.44 97.0644 23.136 96.1204 23.616C95.1764 24.096 94.1124 24.336 92.9284 24.336ZM92.9284 21.648C93.8564 21.648 94.6244 21.352 95.2324 20.76C95.8404 20.152 96.1444 19.288 96.1444 18.168V17.928C96.1444 16.808 95.8404 15.952 95.2324 15.36C94.6404 14.752 93.8724 14.448 92.9284 14.448C92.0004 14.448 91.2324 14.752 90.6244 15.36C90.0164 15.952 89.7124 16.808 89.7124 17.928V18.168C89.7124 19.288 90.0164 20.152 90.6244 20.76C91.2324 21.352 92.0004 21.648 92.9284 21.648ZM100.76 28.8V12.096H103.736V13.536H104.168C104.44 13.072 104.864 12.664 105.44 12.312C106.016 11.944 106.84 11.76 107.912 11.76C108.872 11.76 109.76 12 110.576 12.48C111.392 12.944 112.048 13.632 112.544 14.544C113.04 15.456 113.288 16.56 113.288 17.856V18.24C113.288 19.536 113.04 20.64 112.544 21.552C112.048 22.464 111.392 23.16 110.576 23.64C109.76 24.104 108.872 24.336 107.912 24.336C107.192 24.336 106.584 24.248 106.088 24.072C105.608 23.912 105.216 23.704 104.912 23.448C104.624 23.176 104.392 22.904 104.216 22.632H103.784V28.8H100.76ZM107 21.696C107.944 21.696 108.72 21.4 109.328 20.808C109.952 20.2 110.264 19.32 110.264 18.168V17.928C110.264 16.776 109.952 15.904 109.328 15.312C108.704 14.704 107.928 14.4 107 14.4C106.072 14.4 105.296 14.704 104.672 15.312C104.048 15.904 103.736 16.776 103.736 17.928V18.168C103.736 19.32 104.048 20.2 104.672 20.808C105.296 21.4 106.072 21.696 107 21.696ZM119.808 24.336C118.256 24.336 116.984 24 115.992 23.328C115 22.656 114.4 21.696 114.192 20.448L116.976 19.728C117.088 20.288 117.272 20.728 117.528 21.048C117.8 21.368 118.128 21.6 118.512 21.744C118.912 21.872 119.344 21.936 119.808 21.936C120.512 21.936 121.032 21.816 121.368 21.576C121.704 21.32 121.872 21.008 121.872 20.64C121.872 20.272 121.712 19.992 121.392 19.8C121.072 19.592 120.56 19.424 119.856 19.296L119.184 19.176C118.352 19.016 117.592 18.8 116.904 18.528C116.216 18.24 115.664 17.848 115.248 17.352C114.832 16.856 114.624 16.216 114.624 15.432C114.624 14.248 115.056 13.344 115.92 12.72C116.784 12.08 117.92 11.76 119.328 11.76C120.656 11.76 121.76 12.056 122.64 12.648C123.52 13.24 124.096 14.016 124.368 14.976L121.56 15.84C121.432 15.232 121.168 14.8 120.768 14.544C120.384 14.288 119.904 14.16 119.328 14.16C118.752 14.16 118.312 14.264 118.008 14.472C117.704 14.664 117.552 14.936 117.552 15.288C117.552 15.672 117.712 15.96 118.032 16.152C118.352 16.328 118.784 16.464 119.328 16.56L120 16.68C120.896 16.84 121.704 17.056 122.424 17.328C123.16 17.584 123.736 17.96 124.152 18.456C124.584 18.936 124.8 19.592 124.8 20.424C124.8 21.672 124.344 22.64 123.432 23.328C122.536 24 121.328 24.336 119.808 24.336Z" fill="#FEFEFE"/>
</svg>
